<mxfile host="65bd71144e">
    <diagram id="CKsTaNWD0P1iZ0fZwkxA" name="分布式文件系统">
        <mxGraphModel dx="1572" dy="785" grid="1" gridSize="10" guides="1" tooltips="1" connect="1" arrows="1" fold="1" page="1" pageScale="1" pageWidth="1169" pageHeight="827" math="0" shadow="0">
            <root>
                <mxCell id="0"/>
                <mxCell id="1" parent="0"/>
                <mxCell id="23" value="" style="rounded=0;whiteSpace=wrap;html=1;" parent="1" vertex="1">
                    <mxGeometry x="340" y="211" width="440" height="219" as="geometry"/>
                </mxCell>
                <mxCell id="2" value="DiskANN" style="rounded=1;whiteSpace=wrap;html=1;" parent="1" vertex="1">
                    <mxGeometry x="100" y="80" width="120" height="60" as="geometry"/>
                </mxCell>
                <mxCell id="3" value="本地磁盘" style="rounded=1;whiteSpace=wrap;html=1;" parent="1" vertex="1">
                    <mxGeometry x="100" y="211" width="120" height="60" as="geometry"/>
                </mxCell>
                <mxCell id="7" value="" style="endArrow=classic;html=1;exitX=0.25;exitY=1;exitDx=0;exitDy=0;entryX=0.25;entryY=0;entryDx=0;entryDy=0;" parent="1" edge="1">
                    <mxGeometry width="50" height="50" relative="1" as="geometry">
                        <mxPoint x="140" y="140" as="sourcePoint"/>
                        <mxPoint x="140" y="211" as="targetPoint"/>
                    </mxGeometry>
                </mxCell>
                <mxCell id="8" value="" style="endArrow=classic;html=1;exitX=0.75;exitY=0;exitDx=0;exitDy=0;entryX=0.75;entryY=1;entryDx=0;entryDy=0;" parent="1" edge="1">
                    <mxGeometry width="50" height="50" relative="1" as="geometry">
                        <mxPoint x="172" y="211" as="sourcePoint"/>
                        <mxPoint x="172" y="140" as="targetPoint"/>
                    </mxGeometry>
                </mxCell>
                <mxCell id="9" value="写" style="text;html=1;strokeColor=none;fillColor=none;align=center;verticalAlign=middle;whiteSpace=wrap;rounded=0;" parent="1" vertex="1">
                    <mxGeometry x="96" y="160" width="60" height="30" as="geometry"/>
                </mxCell>
                <mxCell id="10" value="读" style="text;html=1;strokeColor=none;fillColor=none;align=center;verticalAlign=middle;whiteSpace=wrap;rounded=0;" parent="1" vertex="1">
                    <mxGeometry x="156" y="160" width="60" height="30" as="geometry"/>
                </mxCell>
                <mxCell id="11" value="DiskANN" style="rounded=1;whiteSpace=wrap;html=1;" parent="1" vertex="1">
                    <mxGeometry x="404" y="78" width="120" height="60" as="geometry"/>
                </mxCell>
                <mxCell id="13" value="" style="endArrow=classic;html=1;exitX=0.25;exitY=1;exitDx=0;exitDy=0;entryX=0.25;entryY=0;entryDx=0;entryDy=0;" parent="1" edge="1">
                    <mxGeometry width="50" height="50" relative="1" as="geometry">
                        <mxPoint x="444" y="138" as="sourcePoint"/>
                        <mxPoint x="444" y="209" as="targetPoint"/>
                    </mxGeometry>
                </mxCell>
                <mxCell id="14" value="" style="endArrow=classic;html=1;exitX=0.75;exitY=0;exitDx=0;exitDy=0;entryX=0.75;entryY=1;entryDx=0;entryDy=0;" parent="1" edge="1">
                    <mxGeometry width="50" height="50" relative="1" as="geometry">
                        <mxPoint x="476" y="209" as="sourcePoint"/>
                        <mxPoint x="476" y="138" as="targetPoint"/>
                    </mxGeometry>
                </mxCell>
                <mxCell id="15" value="写" style="text;html=1;strokeColor=none;fillColor=none;align=center;verticalAlign=middle;whiteSpace=wrap;rounded=0;" parent="1" vertex="1">
                    <mxGeometry x="400" y="158" width="60" height="30" as="geometry"/>
                </mxCell>
                <mxCell id="16" value="读" style="text;html=1;strokeColor=none;fillColor=none;align=center;verticalAlign=middle;whiteSpace=wrap;rounded=0;" parent="1" vertex="1">
                    <mxGeometry x="460" y="158" width="60" height="30" as="geometry"/>
                </mxCell>
                <mxCell id="17" value="" style="endArrow=none;html=1;" parent="1" edge="1">
                    <mxGeometry width="50" height="50" relative="1" as="geometry">
                        <mxPoint x="280" y="520" as="sourcePoint"/>
                        <mxPoint x="280" y="10" as="targetPoint"/>
                    </mxGeometry>
                </mxCell>
                <mxCell id="19" value="元数据缓存" style="rounded=1;whiteSpace=wrap;html=1;" parent="1" vertex="1">
                    <mxGeometry x="404" y="230" width="120" height="60" as="geometry"/>
                </mxCell>
                <mxCell id="20" value="元数据管理" style="rounded=1;whiteSpace=wrap;html=1;" parent="1" vertex="1">
                    <mxGeometry x="404" y="340" width="120" height="60" as="geometry"/>
                </mxCell>
                <mxCell id="21" value="本地缓存" style="rounded=1;whiteSpace=wrap;html=1;" parent="1" vertex="1">
                    <mxGeometry x="610" y="230" width="120" height="60" as="geometry"/>
                </mxCell>
                <mxCell id="22" value="对象存储" style="rounded=1;whiteSpace=wrap;html=1;" parent="1" vertex="1">
                    <mxGeometry x="610" y="340" width="120" height="60" as="geometry"/>
                </mxCell>
                <mxCell id="24" value="" style="endArrow=classic;startArrow=classic;html=1;exitX=0.5;exitY=0;exitDx=0;exitDy=0;entryX=0.5;entryY=1;entryDx=0;entryDy=0;" parent="1" source="20" target="19" edge="1">
                    <mxGeometry width="50" height="50" relative="1" as="geometry">
                        <mxPoint x="430" y="340" as="sourcePoint"/>
                        <mxPoint x="480" y="290" as="targetPoint"/>
                    </mxGeometry>
                </mxCell>
                <mxCell id="26" value="" style="endArrow=classic;startArrow=classic;html=1;exitX=1;exitY=0.5;exitDx=0;exitDy=0;entryX=0;entryY=0.5;entryDx=0;entryDy=0;" parent="1" source="20" target="22" edge="1">
                    <mxGeometry width="50" height="50" relative="1" as="geometry">
                        <mxPoint x="830" y="290" as="sourcePoint"/>
                        <mxPoint x="880" y="240" as="targetPoint"/>
                    </mxGeometry>
                </mxCell>
                <mxCell id="28" value="" style="endArrow=classic;startArrow=classic;html=1;exitX=0.5;exitY=0;exitDx=0;exitDy=0;entryX=0.5;entryY=1;entryDx=0;entryDy=0;" parent="1" source="22" target="21" edge="1">
                    <mxGeometry width="50" height="50" relative="1" as="geometry">
                        <mxPoint x="630" y="340" as="sourcePoint"/>
                        <mxPoint x="664" y="290" as="targetPoint"/>
                    </mxGeometry>
                </mxCell>
                <mxCell id="29" value="分布式文件系统" style="text;html=1;strokeColor=none;fillColor=none;align=center;verticalAlign=middle;whiteSpace=wrap;rounded=0;fontSize=21;" parent="1" vertex="1">
                    <mxGeometry x="480" y="300" width="160" height="30" as="geometry"/>
                </mxCell>
            </root>
        </mxGraphModel>
    </diagram>
    <diagram name="分布式一致性哈希" id="xVP4CoCDNm6S8e8Iq7-a">
        <mxGraphModel dx="1572" dy="785" grid="1" gridSize="10" guides="1" tooltips="1" connect="1" arrows="1" fold="1" page="1" pageScale="1" pageWidth="1169" pageHeight="827" math="0" shadow="0">
            <root>
                <mxCell id="fLAg-gxhZwFW8NkgzY5_-0"/>
                <mxCell id="fLAg-gxhZwFW8NkgzY5_-1" parent="fLAg-gxhZwFW8NkgzY5_-0"/>
                <mxCell id="mjiwSMrNtu6T7SvDcX1x-0" value="" style="ellipse;whiteSpace=wrap;html=1;aspect=fixed;" vertex="1" parent="fLAg-gxhZwFW8NkgzY5_-1">
                    <mxGeometry x="340" y="260" width="280" height="280" as="geometry"/>
                </mxCell>
                <mxCell id="mjiwSMrNtu6T7SvDcX1x-1" value="" style="ellipse;whiteSpace=wrap;html=1;aspect=fixed;" vertex="1" parent="fLAg-gxhZwFW8NkgzY5_-1">
                    <mxGeometry x="330" y="390" width="20" height="20" as="geometry"/>
                </mxCell>
                <mxCell id="mjiwSMrNtu6T7SvDcX1x-2" value="C" style="ellipse;whiteSpace=wrap;html=1;aspect=fixed;fontSize=18;" vertex="1" parent="fLAg-gxhZwFW8NkgzY5_-1">
                    <mxGeometry x="610" y="390" width="20" height="20" as="geometry"/>
                </mxCell>
                <mxCell id="mjiwSMrNtu6T7SvDcX1x-3" value="D" style="ellipse;whiteSpace=wrap;html=1;aspect=fixed;fontSize=18;" vertex="1" parent="fLAg-gxhZwFW8NkgzY5_-1">
                    <mxGeometry x="470" y="530" width="20" height="20" as="geometry"/>
                </mxCell>
                <mxCell id="mjiwSMrNtu6T7SvDcX1x-4" value="B" style="ellipse;whiteSpace=wrap;html=1;aspect=fixed;fontSize=18;" vertex="1" parent="fLAg-gxhZwFW8NkgzY5_-1">
                    <mxGeometry x="470" y="250" width="20" height="20" as="geometry"/>
                </mxCell>
                <mxCell id="mjiwSMrNtu6T7SvDcX1x-6" value="A" style="text;html=1;strokeColor=none;fillColor=none;align=center;verticalAlign=middle;whiteSpace=wrap;rounded=0;fontSize=18;" vertex="1" parent="fLAg-gxhZwFW8NkgzY5_-1">
                    <mxGeometry x="310" y="385" width="60" height="30" as="geometry"/>
                </mxCell>
                <mxCell id="mjiwSMrNtu6T7SvDcX1x-7" value="E" style="ellipse;whiteSpace=wrap;html=1;aspect=fixed;fontSize=18;fillColor=#d80073;fontColor=#ffffff;strokeColor=#A50040;" vertex="1" parent="fLAg-gxhZwFW8NkgzY5_-1">
                    <mxGeometry x="565" y="490" width="20" height="20" as="geometry"/>
                </mxCell>
                <mxCell id="mjiwSMrNtu6T7SvDcX1x-10" value="新加入节点" style="text;html=1;strokeColor=none;fillColor=none;align=center;verticalAlign=middle;whiteSpace=wrap;rounded=0;fontSize=18;" vertex="1" parent="fLAg-gxhZwFW8NkgzY5_-1">
                    <mxGeometry x="590" y="500" width="110" height="30" as="geometry"/>
                </mxCell>
                <mxCell id="mjiwSMrNtu6T7SvDcX1x-11" value="影响节点" style="text;html=1;strokeColor=none;fillColor=none;align=center;verticalAlign=middle;whiteSpace=wrap;rounded=0;fontSize=18;" vertex="1" parent="fLAg-gxhZwFW8NkgzY5_-1">
                    <mxGeometry x="430" y="550" width="110" height="30" as="geometry"/>
                </mxCell>
            </root>
        </mxGraphModel>
    </diagram>
    <diagram name="分布式一致性哈希-缩容" id="yWH0Skgvwrag0JrlLhQe">
        <mxGraphModel dx="1084" dy="541" grid="1" gridSize="10" guides="1" tooltips="1" connect="1" arrows="1" fold="1" page="1" pageScale="1" pageWidth="1169" pageHeight="827" math="0" shadow="0">
            <root>
                <mxCell id="r3LM12rtTiZwdMKzA08n-0"/>
                <mxCell id="r3LM12rtTiZwdMKzA08n-1" parent="r3LM12rtTiZwdMKzA08n-0"/>
                <mxCell id="r3LM12rtTiZwdMKzA08n-2" value="" style="ellipse;whiteSpace=wrap;html=1;aspect=fixed;" vertex="1" parent="r3LM12rtTiZwdMKzA08n-1">
                    <mxGeometry x="340" y="260" width="280" height="280" as="geometry"/>
                </mxCell>
                <mxCell id="r3LM12rtTiZwdMKzA08n-3" value="" style="ellipse;whiteSpace=wrap;html=1;aspect=fixed;" vertex="1" parent="r3LM12rtTiZwdMKzA08n-1">
                    <mxGeometry x="330" y="390" width="20" height="20" as="geometry"/>
                </mxCell>
                <mxCell id="r3LM12rtTiZwdMKzA08n-4" value="C" style="ellipse;whiteSpace=wrap;html=1;aspect=fixed;fontSize=18;" vertex="1" parent="r3LM12rtTiZwdMKzA08n-1">
                    <mxGeometry x="610" y="390" width="20" height="20" as="geometry"/>
                </mxCell>
                <mxCell id="r3LM12rtTiZwdMKzA08n-5" value="D" style="ellipse;whiteSpace=wrap;html=1;aspect=fixed;fontSize=18;dashed=1;fillColor=#d80073;fontColor=#ffffff;strokeColor=#A50040;" vertex="1" parent="r3LM12rtTiZwdMKzA08n-1">
                    <mxGeometry x="470" y="530" width="20" height="20" as="geometry"/>
                </mxCell>
                <mxCell id="r3LM12rtTiZwdMKzA08n-6" value="B" style="ellipse;whiteSpace=wrap;html=1;aspect=fixed;fontSize=18;" vertex="1" parent="r3LM12rtTiZwdMKzA08n-1">
                    <mxGeometry x="470" y="250" width="20" height="20" as="geometry"/>
                </mxCell>
                <mxCell id="r3LM12rtTiZwdMKzA08n-7" value="A" style="text;html=1;strokeColor=none;fillColor=none;align=center;verticalAlign=middle;whiteSpace=wrap;rounded=0;fontSize=18;" vertex="1" parent="r3LM12rtTiZwdMKzA08n-1">
                    <mxGeometry x="310" y="385" width="60" height="30" as="geometry"/>
                </mxCell>
                <mxCell id="r3LM12rtTiZwdMKzA08n-10" value="节点下线" style="text;html=1;strokeColor=none;fillColor=none;align=center;verticalAlign=middle;whiteSpace=wrap;rounded=0;fontSize=18;" vertex="1" parent="r3LM12rtTiZwdMKzA08n-1">
                    <mxGeometry x="430" y="550" width="110" height="30" as="geometry"/>
                </mxCell>
            </root>
        </mxGraphModel>
    </diagram>
    <diagram name="DiskANN Server 扩缩容" id="nJ3Gt4F4mVlEkVsQFx_M">
        <mxGraphModel dx="1572" dy="785" grid="1" gridSize="10" guides="1" tooltips="1" connect="1" arrows="1" fold="1" page="1" pageScale="1" pageWidth="1169" pageHeight="827" math="0" shadow="0">
            <root>
                <mxCell id="B6bvSRhntwAdCzWcwHlX-0"/>
                <mxCell id="B6bvSRhntwAdCzWcwHlX-1" parent="B6bvSRhntwAdCzWcwHlX-0"/>
                <mxCell id="B6bvSRhntwAdCzWcwHlX-2" value="" style="rounded=0;whiteSpace=wrap;html=1;" parent="B6bvSRhntwAdCzWcwHlX-1" vertex="1">
                    <mxGeometry x="347" y="481" width="440" height="236" as="geometry"/>
                </mxCell>
                <mxCell id="B6bvSRhntwAdCzWcwHlX-9" value="DiskANN Server" style="rounded=1;whiteSpace=wrap;html=1;" parent="B6bvSRhntwAdCzWcwHlX-1" vertex="1">
                    <mxGeometry x="489" y="359" width="156" height="60" as="geometry"/>
                </mxCell>
                <mxCell id="B6bvSRhntwAdCzWcwHlX-22" value="分布式文件系统" style="text;html=1;strokeColor=none;fillColor=none;align=center;verticalAlign=middle;whiteSpace=wrap;rounded=0;fontSize=21;" parent="B6bvSRhntwAdCzWcwHlX-1" vertex="1">
                    <mxGeometry x="481" y="587" width="160" height="30" as="geometry"/>
                </mxCell>
                <mxCell id="G5oHMZBDG4q46UXUelJE-0" value="DiskANN Server" style="rounded=1;whiteSpace=wrap;html=1;" parent="B6bvSRhntwAdCzWcwHlX-1" vertex="1">
                    <mxGeometry x="685" y="359" width="156" height="60" as="geometry"/>
                </mxCell>
                <mxCell id="G5oHMZBDG4q46UXUelJE-1" value="DiskANN Server" style="rounded=1;whiteSpace=wrap;html=1;" parent="B6bvSRhntwAdCzWcwHlX-1" vertex="1">
                    <mxGeometry x="295" y="359" width="156" height="60" as="geometry"/>
                </mxCell>
                <mxCell id="G5oHMZBDG4q46UXUelJE-2" value="DiskANN Server" style="rounded=1;whiteSpace=wrap;html=1;" parent="B6bvSRhntwAdCzWcwHlX-1" vertex="1">
                    <mxGeometry x="885" y="359" width="156" height="60" as="geometry"/>
                </mxCell>
                <mxCell id="G5oHMZBDG4q46UXUelJE-3" value="DiskANN Server" style="rounded=1;whiteSpace=wrap;html=1;" parent="B6bvSRhntwAdCzWcwHlX-1" vertex="1">
                    <mxGeometry x="115" y="359" width="156" height="60" as="geometry"/>
                </mxCell>
                <mxCell id="G5oHMZBDG4q46UXUelJE-4" value="" style="shape=cylinder3;whiteSpace=wrap;html=1;boundedLbl=1;backgroundOutline=1;size=15;fontSize=21;" parent="B6bvSRhntwAdCzWcwHlX-1" vertex="1">
                    <mxGeometry x="390" y="499" width="60" height="80" as="geometry"/>
                </mxCell>
                <mxCell id="G5oHMZBDG4q46UXUelJE-5" value="" style="shape=cylinder3;whiteSpace=wrap;html=1;boundedLbl=1;backgroundOutline=1;size=15;fontSize=21;" parent="B6bvSRhntwAdCzWcwHlX-1" vertex="1">
                    <mxGeometry x="686" y="504" width="60" height="80" as="geometry"/>
                </mxCell>
                <mxCell id="G5oHMZBDG4q46UXUelJE-6" value="" style="shape=cylinder3;whiteSpace=wrap;html=1;boundedLbl=1;backgroundOutline=1;size=15;fontSize=21;" parent="B6bvSRhntwAdCzWcwHlX-1" vertex="1">
                    <mxGeometry x="390" y="621" width="60" height="80" as="geometry"/>
                </mxCell>
                <mxCell id="G5oHMZBDG4q46UXUelJE-7" value="" style="shape=cylinder3;whiteSpace=wrap;html=1;boundedLbl=1;backgroundOutline=1;size=15;fontSize=21;" parent="B6bvSRhntwAdCzWcwHlX-1" vertex="1">
                    <mxGeometry x="500" y="621" width="60" height="80" as="geometry"/>
                </mxCell>
                <mxCell id="G5oHMZBDG4q46UXUelJE-8" value="" style="shape=cylinder3;whiteSpace=wrap;html=1;boundedLbl=1;backgroundOutline=1;size=15;fontSize=21;" parent="B6bvSRhntwAdCzWcwHlX-1" vertex="1">
                    <mxGeometry x="620" y="621" width="60" height="80" as="geometry"/>
                </mxCell>
                <mxCell id="G5oHMZBDG4q46UXUelJE-9" value="" style="shape=cylinder3;whiteSpace=wrap;html=1;boundedLbl=1;backgroundOutline=1;size=15;fontSize=21;" parent="B6bvSRhntwAdCzWcwHlX-1" vertex="1">
                    <mxGeometry x="700" y="621" width="60" height="80" as="geometry"/>
                </mxCell>
                <mxCell id="G5oHMZBDG4q46UXUelJE-10" value="" style="shape=cylinder3;whiteSpace=wrap;html=1;boundedLbl=1;backgroundOutline=1;size=15;fontSize=21;" parent="B6bvSRhntwAdCzWcwHlX-1" vertex="1">
                    <mxGeometry x="490" y="499" width="60" height="80" as="geometry"/>
                </mxCell>
                <mxCell id="G5oHMZBDG4q46UXUelJE-11" value="" style="shape=cylinder3;whiteSpace=wrap;html=1;boundedLbl=1;backgroundOutline=1;size=15;fontSize=21;" parent="B6bvSRhntwAdCzWcwHlX-1" vertex="1">
                    <mxGeometry x="585" y="501" width="60" height="80" as="geometry"/>
                </mxCell>
                <mxCell id="G5oHMZBDG4q46UXUelJE-12" value="Index" style="rounded=1;whiteSpace=wrap;html=1;" parent="B6bvSRhntwAdCzWcwHlX-1" vertex="1">
                    <mxGeometry x="404" y="109" width="156" height="60" as="geometry"/>
                </mxCell>
                <mxCell id="G5oHMZBDG4q46UXUelJE-13" value="Index" style="rounded=1;whiteSpace=wrap;html=1;" parent="B6bvSRhntwAdCzWcwHlX-1" vertex="1">
                    <mxGeometry x="600" y="109" width="156" height="60" as="geometry"/>
                </mxCell>
                <mxCell id="G5oHMZBDG4q46UXUelJE-14" value="Index" style="rounded=1;whiteSpace=wrap;html=1;" parent="B6bvSRhntwAdCzWcwHlX-1" vertex="1">
                    <mxGeometry x="210" y="109" width="156" height="60" as="geometry"/>
                </mxCell>
                <mxCell id="G5oHMZBDG4q46UXUelJE-17" value="proxy" style="rounded=1;whiteSpace=wrap;html=1;" parent="B6bvSRhntwAdCzWcwHlX-1" vertex="1">
                    <mxGeometry x="410" y="240" width="156" height="60" as="geometry"/>
                </mxCell>
                <mxCell id="G5oHMZBDG4q46UXUelJE-19" value="" style="endArrow=classic;startArrow=classic;html=1;fontSize=21;entryX=0.5;entryY=1;entryDx=0;entryDy=0;exitX=0.462;exitY=-0.025;exitDx=0;exitDy=0;exitPerimeter=0;" parent="B6bvSRhntwAdCzWcwHlX-1" source="G5oHMZBDG4q46UXUelJE-17" target="G5oHMZBDG4q46UXUelJE-12" edge="1">
                    <mxGeometry width="50" height="50" relative="1" as="geometry">
                        <mxPoint x="490" y="230" as="sourcePoint"/>
                        <mxPoint x="310" y="180" as="targetPoint"/>
                    </mxGeometry>
                </mxCell>
                <mxCell id="G5oHMZBDG4q46UXUelJE-23" value="" style="endArrow=classic;startArrow=classic;html=1;fontSize=21;exitX=0.458;exitY=-0.023;exitDx=0;exitDy=0;exitPerimeter=0;entryX=0.5;entryY=1;entryDx=0;entryDy=0;" parent="B6bvSRhntwAdCzWcwHlX-1" source="G5oHMZBDG4q46UXUelJE-17" target="G5oHMZBDG4q46UXUelJE-14" edge="1">
                    <mxGeometry width="50" height="50" relative="1" as="geometry">
                        <mxPoint x="492.0720000000001" y="247" as="sourcePoint"/>
                        <mxPoint x="492" y="179" as="targetPoint"/>
                    </mxGeometry>
                </mxCell>
                <mxCell id="G5oHMZBDG4q46UXUelJE-24" value="" style="endArrow=classic;startArrow=classic;html=1;fontSize=21;exitX=0.474;exitY=-0.02;exitDx=0;exitDy=0;exitPerimeter=0;entryX=0.529;entryY=1.001;entryDx=0;entryDy=0;entryPerimeter=0;" parent="B6bvSRhntwAdCzWcwHlX-1" source="G5oHMZBDG4q46UXUelJE-17" target="G5oHMZBDG4q46UXUelJE-13" edge="1">
                    <mxGeometry width="50" height="50" relative="1" as="geometry">
                        <mxPoint x="491.4480000000001" y="248.62" as="sourcePoint"/>
                        <mxPoint x="298.0000000000001" y="179" as="targetPoint"/>
                    </mxGeometry>
                </mxCell>
                <mxCell id="G5oHMZBDG4q46UXUelJE-25" value="" style="endArrow=classic;startArrow=classic;html=1;fontSize=21;exitX=0.5;exitY=0;exitDx=0;exitDy=0;entryX=0.479;entryY=1.027;entryDx=0;entryDy=0;entryPerimeter=0;" parent="B6bvSRhntwAdCzWcwHlX-1" source="G5oHMZBDG4q46UXUelJE-3" target="G5oHMZBDG4q46UXUelJE-17" edge="1">
                    <mxGeometry width="50" height="50" relative="1" as="geometry">
                        <mxPoint x="493.94399999999996" y="248.79999999999995" as="sourcePoint"/>
                        <mxPoint x="692.5239999999999" y="179.06000000000006" as="targetPoint"/>
                    </mxGeometry>
                </mxCell>
                <mxCell id="G5oHMZBDG4q46UXUelJE-27" value="" style="endArrow=classic;startArrow=classic;html=1;fontSize=21;exitX=0.5;exitY=0;exitDx=0;exitDy=0;entryX=0.467;entryY=1.026;entryDx=0;entryDy=0;entryPerimeter=0;" parent="B6bvSRhntwAdCzWcwHlX-1" target="G5oHMZBDG4q46UXUelJE-17" edge="1">
                    <mxGeometry width="50" height="50" relative="1" as="geometry">
                        <mxPoint x="366.0000000000001" y="359" as="sourcePoint"/>
                        <mxPoint x="657.7240000000002" y="301.62" as="targetPoint"/>
                    </mxGeometry>
                </mxCell>
                <mxCell id="G5oHMZBDG4q46UXUelJE-28" value="" style="endArrow=classic;startArrow=classic;html=1;fontSize=21;exitX=0.512;exitY=0.006;exitDx=0;exitDy=0;entryX=0.476;entryY=0.994;entryDx=0;entryDy=0;entryPerimeter=0;exitPerimeter=0;" parent="B6bvSRhntwAdCzWcwHlX-1" source="B6bvSRhntwAdCzWcwHlX-9" target="G5oHMZBDG4q46UXUelJE-17" edge="1">
                    <mxGeometry width="50" height="50" relative="1" as="geometry">
                        <mxPoint x="376.0000000000001" y="369" as="sourcePoint"/>
                        <mxPoint x="492.8520000000001" y="311.56" as="targetPoint"/>
                    </mxGeometry>
                </mxCell>
                <mxCell id="G5oHMZBDG4q46UXUelJE-29" value="" style="endArrow=classic;startArrow=classic;html=1;fontSize=21;exitX=0.532;exitY=0.01;exitDx=0;exitDy=0;exitPerimeter=0;" parent="B6bvSRhntwAdCzWcwHlX-1" source="G5oHMZBDG4q46UXUelJE-0" edge="1">
                    <mxGeometry width="50" height="50" relative="1" as="geometry">
                        <mxPoint x="578.8719999999998" y="369.36" as="sourcePoint"/>
                        <mxPoint x="490" y="300" as="targetPoint"/>
                    </mxGeometry>
                </mxCell>
                <mxCell id="G5oHMZBDG4q46UXUelJE-30" value="" style="endArrow=classic;startArrow=classic;html=1;fontSize=21;exitX=0.559;exitY=0.015;exitDx=0;exitDy=0;exitPerimeter=0;" parent="B6bvSRhntwAdCzWcwHlX-1" source="G5oHMZBDG4q46UXUelJE-2" edge="1">
                    <mxGeometry width="50" height="50" relative="1" as="geometry">
                        <mxPoint x="766.992" y="359.6" as="sourcePoint"/>
                        <mxPoint x="489" y="300" as="targetPoint"/>
                    </mxGeometry>
                </mxCell>
                <mxCell id="G5oHMZBDG4q46UXUelJE-31" value="" style="endArrow=classic;startArrow=classic;html=1;fontSize=21;exitX=0.5;exitY=0;exitDx=0;exitDy=0;" parent="B6bvSRhntwAdCzWcwHlX-1" edge="1">
                    <mxGeometry width="50" height="50" relative="1" as="geometry">
                        <mxPoint x="180" y="418.9999999999999" as="sourcePoint"/>
                        <mxPoint x="520" y="480" as="targetPoint"/>
                    </mxGeometry>
                </mxCell>
                <mxCell id="G5oHMZBDG4q46UXUelJE-32" value="" style="endArrow=classic;startArrow=classic;html=1;fontSize=21;exitX=0.5;exitY=1;exitDx=0;exitDy=0;" parent="B6bvSRhntwAdCzWcwHlX-1" source="G5oHMZBDG4q46UXUelJE-1" edge="1">
                    <mxGeometry width="50" height="50" relative="1" as="geometry">
                        <mxPoint x="190" y="428.9999999999999" as="sourcePoint"/>
                        <mxPoint x="520" y="480" as="targetPoint"/>
                    </mxGeometry>
                </mxCell>
                <mxCell id="G5oHMZBDG4q46UXUelJE-33" value="" style="endArrow=classic;startArrow=classic;html=1;fontSize=21;exitX=0.487;exitY=1.006;exitDx=0;exitDy=0;exitPerimeter=0;entryX=0.407;entryY=0.001;entryDx=0;entryDy=0;entryPerimeter=0;" parent="B6bvSRhntwAdCzWcwHlX-1" source="B6bvSRhntwAdCzWcwHlX-9" target="B6bvSRhntwAdCzWcwHlX-2" edge="1">
                    <mxGeometry width="50" height="50" relative="1" as="geometry">
                        <mxPoint x="383" y="429" as="sourcePoint"/>
                        <mxPoint x="530" y="490" as="targetPoint"/>
                    </mxGeometry>
                </mxCell>
                <mxCell id="G5oHMZBDG4q46UXUelJE-34" value="" style="endArrow=classic;startArrow=classic;html=1;fontSize=21;entryX=0.413;entryY=0.001;entryDx=0;entryDy=0;entryPerimeter=0;" parent="B6bvSRhntwAdCzWcwHlX-1" target="B6bvSRhntwAdCzWcwHlX-2" edge="1">
                    <mxGeometry width="50" height="50" relative="1" as="geometry">
                        <mxPoint x="760" y="420" as="sourcePoint"/>
                        <mxPoint x="530.0799999999999" y="491.236" as="targetPoint"/>
                    </mxGeometry>
                </mxCell>
                <mxCell id="G5oHMZBDG4q46UXUelJE-35" value="" style="endArrow=classic;startArrow=classic;html=1;fontSize=21;entryX=0.424;entryY=0.001;entryDx=0;entryDy=0;entryPerimeter=0;exitX=0.5;exitY=1;exitDx=0;exitDy=0;" parent="B6bvSRhntwAdCzWcwHlX-1" source="G5oHMZBDG4q46UXUelJE-2" target="B6bvSRhntwAdCzWcwHlX-2" edge="1">
                    <mxGeometry width="50" height="50" relative="1" as="geometry">
                        <mxPoint x="770" y="430" as="sourcePoint"/>
                        <mxPoint x="532.72" y="491.236" as="targetPoint"/>
                    </mxGeometry>
                </mxCell>
                <mxCell id="0a2Zrc49X2QR-oCgoNAu-0" value="monitor" style="rounded=1;whiteSpace=wrap;html=1;" parent="B6bvSRhntwAdCzWcwHlX-1" vertex="1">
                    <mxGeometry x="637" y="240" width="156" height="60" as="geometry"/>
                </mxCell>
                <mxCell id="0a2Zrc49X2QR-oCgoNAu-1" value="" style="endArrow=classic;startArrow=classic;html=1;fontSize=21;" parent="B6bvSRhntwAdCzWcwHlX-1" source="G5oHMZBDG4q46UXUelJE-17" edge="1">
                    <mxGeometry width="50" height="50" relative="1" as="geometry">
                        <mxPoint x="566" y="320" as="sourcePoint"/>
                        <mxPoint x="636.7106781186548" y="270" as="targetPoint"/>
                    </mxGeometry>
                </mxCell>
            </root>
        </mxGraphModel>
    </diagram>
    <diagram name="DiskANN Server 扩缩容 升级版" id="YWT8rJlzaPUkMyFxkXT2">
        <mxGraphModel dx="1572" dy="785" grid="1" gridSize="10" guides="1" tooltips="1" connect="1" arrows="1" fold="1" page="1" pageScale="1" pageWidth="1169" pageHeight="827" math="0" shadow="0">
            <root>
                <mxCell id="0jPhWe5SMJ6izOc9fW33-0"/>
                <mxCell id="0jPhWe5SMJ6izOc9fW33-1" parent="0jPhWe5SMJ6izOc9fW33-0"/>
                <mxCell id="wMBQtBbYKCqUVkrB1MUc-1" value="" style="rounded=0;whiteSpace=wrap;html=1;dashed=1;" parent="0jPhWe5SMJ6izOc9fW33-1" vertex="1">
                    <mxGeometry x="470" y="350" width="590" height="80" as="geometry"/>
                </mxCell>
                <mxCell id="wMBQtBbYKCqUVkrB1MUc-0" value="" style="rounded=0;whiteSpace=wrap;html=1;dashed=1;" parent="0jPhWe5SMJ6izOc9fW33-1" vertex="1">
                    <mxGeometry x="100" y="350" width="360" height="80" as="geometry"/>
                </mxCell>
                <mxCell id="0jPhWe5SMJ6izOc9fW33-2" value="" style="rounded=0;whiteSpace=wrap;html=1;" parent="0jPhWe5SMJ6izOc9fW33-1" vertex="1">
                    <mxGeometry x="347" y="481" width="440" height="236" as="geometry"/>
                </mxCell>
                <mxCell id="0jPhWe5SMJ6izOc9fW33-3" value="DiskANN Server" style="rounded=1;whiteSpace=wrap;html=1;" parent="0jPhWe5SMJ6izOc9fW33-1" vertex="1">
                    <mxGeometry x="489" y="359" width="156" height="60" as="geometry"/>
                </mxCell>
                <mxCell id="0jPhWe5SMJ6izOc9fW33-4" value="分布式文件系统" style="text;html=1;strokeColor=none;fillColor=none;align=center;verticalAlign=middle;whiteSpace=wrap;rounded=0;fontSize=21;" parent="0jPhWe5SMJ6izOc9fW33-1" vertex="1">
                    <mxGeometry x="481" y="587" width="160" height="30" as="geometry"/>
                </mxCell>
                <mxCell id="0jPhWe5SMJ6izOc9fW33-5" value="DiskANN Server" style="rounded=1;whiteSpace=wrap;html=1;" parent="0jPhWe5SMJ6izOc9fW33-1" vertex="1">
                    <mxGeometry x="685" y="359" width="156" height="60" as="geometry"/>
                </mxCell>
                <mxCell id="0jPhWe5SMJ6izOc9fW33-6" value="DiskANN Server" style="rounded=1;whiteSpace=wrap;html=1;" parent="0jPhWe5SMJ6izOc9fW33-1" vertex="1">
                    <mxGeometry x="295" y="359" width="156" height="60" as="geometry"/>
                </mxCell>
                <mxCell id="0jPhWe5SMJ6izOc9fW33-7" value="DiskANN Server" style="rounded=1;whiteSpace=wrap;html=1;" parent="0jPhWe5SMJ6izOc9fW33-1" vertex="1">
                    <mxGeometry x="885" y="359" width="156" height="60" as="geometry"/>
                </mxCell>
                <mxCell id="0jPhWe5SMJ6izOc9fW33-8" value="DiskANN Server" style="rounded=1;whiteSpace=wrap;html=1;" parent="0jPhWe5SMJ6izOc9fW33-1" vertex="1">
                    <mxGeometry x="115" y="359" width="156" height="60" as="geometry"/>
                </mxCell>
                <mxCell id="0jPhWe5SMJ6izOc9fW33-9" value="" style="shape=cylinder3;whiteSpace=wrap;html=1;boundedLbl=1;backgroundOutline=1;size=15;fontSize=21;" parent="0jPhWe5SMJ6izOc9fW33-1" vertex="1">
                    <mxGeometry x="390" y="499" width="60" height="80" as="geometry"/>
                </mxCell>
                <mxCell id="0jPhWe5SMJ6izOc9fW33-10" value="" style="shape=cylinder3;whiteSpace=wrap;html=1;boundedLbl=1;backgroundOutline=1;size=15;fontSize=21;" parent="0jPhWe5SMJ6izOc9fW33-1" vertex="1">
                    <mxGeometry x="686" y="504" width="60" height="80" as="geometry"/>
                </mxCell>
                <mxCell id="0jPhWe5SMJ6izOc9fW33-11" value="" style="shape=cylinder3;whiteSpace=wrap;html=1;boundedLbl=1;backgroundOutline=1;size=15;fontSize=21;" parent="0jPhWe5SMJ6izOc9fW33-1" vertex="1">
                    <mxGeometry x="390" y="621" width="60" height="80" as="geometry"/>
                </mxCell>
                <mxCell id="0jPhWe5SMJ6izOc9fW33-12" value="" style="shape=cylinder3;whiteSpace=wrap;html=1;boundedLbl=1;backgroundOutline=1;size=15;fontSize=21;" parent="0jPhWe5SMJ6izOc9fW33-1" vertex="1">
                    <mxGeometry x="500" y="621" width="60" height="80" as="geometry"/>
                </mxCell>
                <mxCell id="0jPhWe5SMJ6izOc9fW33-13" value="" style="shape=cylinder3;whiteSpace=wrap;html=1;boundedLbl=1;backgroundOutline=1;size=15;fontSize=21;" parent="0jPhWe5SMJ6izOc9fW33-1" vertex="1">
                    <mxGeometry x="620" y="621" width="60" height="80" as="geometry"/>
                </mxCell>
                <mxCell id="0jPhWe5SMJ6izOc9fW33-14" value="" style="shape=cylinder3;whiteSpace=wrap;html=1;boundedLbl=1;backgroundOutline=1;size=15;fontSize=21;" parent="0jPhWe5SMJ6izOc9fW33-1" vertex="1">
                    <mxGeometry x="700" y="621" width="60" height="80" as="geometry"/>
                </mxCell>
                <mxCell id="0jPhWe5SMJ6izOc9fW33-15" value="" style="shape=cylinder3;whiteSpace=wrap;html=1;boundedLbl=1;backgroundOutline=1;size=15;fontSize=21;" parent="0jPhWe5SMJ6izOc9fW33-1" vertex="1">
                    <mxGeometry x="490" y="499" width="60" height="80" as="geometry"/>
                </mxCell>
                <mxCell id="0jPhWe5SMJ6izOc9fW33-16" value="" style="shape=cylinder3;whiteSpace=wrap;html=1;boundedLbl=1;backgroundOutline=1;size=15;fontSize=21;" parent="0jPhWe5SMJ6izOc9fW33-1" vertex="1">
                    <mxGeometry x="585" y="501" width="60" height="80" as="geometry"/>
                </mxCell>
                <mxCell id="0jPhWe5SMJ6izOc9fW33-17" value="Index" style="rounded=1;whiteSpace=wrap;html=1;" parent="0jPhWe5SMJ6izOc9fW33-1" vertex="1">
                    <mxGeometry x="404" y="109" width="156" height="60" as="geometry"/>
                </mxCell>
                <mxCell id="0jPhWe5SMJ6izOc9fW33-18" value="Index" style="rounded=1;whiteSpace=wrap;html=1;" parent="0jPhWe5SMJ6izOc9fW33-1" vertex="1">
                    <mxGeometry x="600" y="109" width="156" height="60" as="geometry"/>
                </mxCell>
                <mxCell id="0jPhWe5SMJ6izOc9fW33-19" value="Index" style="rounded=1;whiteSpace=wrap;html=1;" parent="0jPhWe5SMJ6izOc9fW33-1" vertex="1">
                    <mxGeometry x="210" y="109" width="156" height="60" as="geometry"/>
                </mxCell>
                <mxCell id="0jPhWe5SMJ6izOc9fW33-20" value="proxy" style="rounded=1;whiteSpace=wrap;html=1;" parent="0jPhWe5SMJ6izOc9fW33-1" vertex="1">
                    <mxGeometry x="410" y="240" width="156" height="60" as="geometry"/>
                </mxCell>
                <mxCell id="0jPhWe5SMJ6izOc9fW33-21" value="" style="endArrow=classic;startArrow=classic;html=1;fontSize=21;entryX=0.5;entryY=1;entryDx=0;entryDy=0;exitX=0.462;exitY=-0.025;exitDx=0;exitDy=0;exitPerimeter=0;" parent="0jPhWe5SMJ6izOc9fW33-1" source="0jPhWe5SMJ6izOc9fW33-20" target="0jPhWe5SMJ6izOc9fW33-17" edge="1">
                    <mxGeometry width="50" height="50" relative="1" as="geometry">
                        <mxPoint x="490" y="230" as="sourcePoint"/>
                        <mxPoint x="310" y="180" as="targetPoint"/>
                    </mxGeometry>
                </mxCell>
                <mxCell id="0jPhWe5SMJ6izOc9fW33-22" value="" style="endArrow=classic;startArrow=classic;html=1;fontSize=21;exitX=0.458;exitY=-0.023;exitDx=0;exitDy=0;exitPerimeter=0;entryX=0.5;entryY=1;entryDx=0;entryDy=0;" parent="0jPhWe5SMJ6izOc9fW33-1" source="0jPhWe5SMJ6izOc9fW33-20" target="0jPhWe5SMJ6izOc9fW33-19" edge="1">
                    <mxGeometry width="50" height="50" relative="1" as="geometry">
                        <mxPoint x="492.0720000000001" y="247" as="sourcePoint"/>
                        <mxPoint x="492" y="179" as="targetPoint"/>
                    </mxGeometry>
                </mxCell>
                <mxCell id="0jPhWe5SMJ6izOc9fW33-23" value="" style="endArrow=classic;startArrow=classic;html=1;fontSize=21;exitX=0.474;exitY=-0.02;exitDx=0;exitDy=0;exitPerimeter=0;entryX=0.529;entryY=1.001;entryDx=0;entryDy=0;entryPerimeter=0;" parent="0jPhWe5SMJ6izOc9fW33-1" source="0jPhWe5SMJ6izOc9fW33-20" target="0jPhWe5SMJ6izOc9fW33-18" edge="1">
                    <mxGeometry width="50" height="50" relative="1" as="geometry">
                        <mxPoint x="491.4480000000001" y="248.62" as="sourcePoint"/>
                        <mxPoint x="298.0000000000001" y="179" as="targetPoint"/>
                    </mxGeometry>
                </mxCell>
                <mxCell id="0jPhWe5SMJ6izOc9fW33-24" value="" style="endArrow=classic;startArrow=classic;html=1;fontSize=21;exitX=0.5;exitY=0;exitDx=0;exitDy=0;entryX=0.479;entryY=1.027;entryDx=0;entryDy=0;entryPerimeter=0;" parent="0jPhWe5SMJ6izOc9fW33-1" source="0jPhWe5SMJ6izOc9fW33-8" target="0jPhWe5SMJ6izOc9fW33-20" edge="1">
                    <mxGeometry width="50" height="50" relative="1" as="geometry">
                        <mxPoint x="493.94399999999996" y="248.79999999999995" as="sourcePoint"/>
                        <mxPoint x="692.5239999999999" y="179.06000000000006" as="targetPoint"/>
                    </mxGeometry>
                </mxCell>
                <mxCell id="0jPhWe5SMJ6izOc9fW33-25" value="" style="endArrow=classic;startArrow=classic;html=1;fontSize=21;exitX=0.5;exitY=0;exitDx=0;exitDy=0;entryX=0.467;entryY=1.026;entryDx=0;entryDy=0;entryPerimeter=0;" parent="0jPhWe5SMJ6izOc9fW33-1" target="0jPhWe5SMJ6izOc9fW33-20" edge="1">
                    <mxGeometry width="50" height="50" relative="1" as="geometry">
                        <mxPoint x="366.0000000000001" y="359" as="sourcePoint"/>
                        <mxPoint x="657.7240000000002" y="301.62" as="targetPoint"/>
                    </mxGeometry>
                </mxCell>
                <mxCell id="0jPhWe5SMJ6izOc9fW33-26" value="" style="endArrow=classic;startArrow=classic;html=1;fontSize=21;exitX=0.512;exitY=0.006;exitDx=0;exitDy=0;entryX=0.476;entryY=0.994;entryDx=0;entryDy=0;entryPerimeter=0;exitPerimeter=0;" parent="0jPhWe5SMJ6izOc9fW33-1" source="0jPhWe5SMJ6izOc9fW33-3" target="0jPhWe5SMJ6izOc9fW33-20" edge="1">
                    <mxGeometry width="50" height="50" relative="1" as="geometry">
                        <mxPoint x="376.0000000000001" y="369" as="sourcePoint"/>
                        <mxPoint x="492.8520000000001" y="311.56" as="targetPoint"/>
                    </mxGeometry>
                </mxCell>
                <mxCell id="0jPhWe5SMJ6izOc9fW33-27" value="" style="endArrow=classic;startArrow=classic;html=1;fontSize=21;exitX=0.532;exitY=0.01;exitDx=0;exitDy=0;exitPerimeter=0;" parent="0jPhWe5SMJ6izOc9fW33-1" source="0jPhWe5SMJ6izOc9fW33-5" edge="1">
                    <mxGeometry width="50" height="50" relative="1" as="geometry">
                        <mxPoint x="578.8719999999998" y="369.36" as="sourcePoint"/>
                        <mxPoint x="490" y="300" as="targetPoint"/>
                    </mxGeometry>
                </mxCell>
                <mxCell id="0jPhWe5SMJ6izOc9fW33-28" value="" style="endArrow=classic;startArrow=classic;html=1;fontSize=21;exitX=0.559;exitY=0.015;exitDx=0;exitDy=0;exitPerimeter=0;" parent="0jPhWe5SMJ6izOc9fW33-1" source="0jPhWe5SMJ6izOc9fW33-7" edge="1">
                    <mxGeometry width="50" height="50" relative="1" as="geometry">
                        <mxPoint x="766.992" y="359.6" as="sourcePoint"/>
                        <mxPoint x="489" y="300" as="targetPoint"/>
                    </mxGeometry>
                </mxCell>
                <mxCell id="0jPhWe5SMJ6izOc9fW33-29" value="" style="endArrow=classic;startArrow=classic;html=1;fontSize=21;exitX=0.5;exitY=0;exitDx=0;exitDy=0;" parent="0jPhWe5SMJ6izOc9fW33-1" edge="1">
                    <mxGeometry width="50" height="50" relative="1" as="geometry">
                        <mxPoint x="180" y="418.9999999999999" as="sourcePoint"/>
                        <mxPoint x="520" y="480" as="targetPoint"/>
                    </mxGeometry>
                </mxCell>
                <mxCell id="0jPhWe5SMJ6izOc9fW33-30" value="" style="endArrow=classic;startArrow=classic;html=1;fontSize=21;exitX=0.5;exitY=1;exitDx=0;exitDy=0;" parent="0jPhWe5SMJ6izOc9fW33-1" source="0jPhWe5SMJ6izOc9fW33-6" edge="1">
                    <mxGeometry width="50" height="50" relative="1" as="geometry">
                        <mxPoint x="190" y="428.9999999999999" as="sourcePoint"/>
                        <mxPoint x="520" y="480" as="targetPoint"/>
                    </mxGeometry>
                </mxCell>
                <mxCell id="0jPhWe5SMJ6izOc9fW33-31" value="" style="endArrow=classic;startArrow=classic;html=1;fontSize=21;exitX=0.487;exitY=1.006;exitDx=0;exitDy=0;exitPerimeter=0;entryX=0.407;entryY=0.001;entryDx=0;entryDy=0;entryPerimeter=0;" parent="0jPhWe5SMJ6izOc9fW33-1" source="0jPhWe5SMJ6izOc9fW33-3" target="0jPhWe5SMJ6izOc9fW33-2" edge="1">
                    <mxGeometry width="50" height="50" relative="1" as="geometry">
                        <mxPoint x="383" y="429" as="sourcePoint"/>
                        <mxPoint x="530" y="490" as="targetPoint"/>
                    </mxGeometry>
                </mxCell>
                <mxCell id="0jPhWe5SMJ6izOc9fW33-32" value="" style="endArrow=classic;startArrow=classic;html=1;fontSize=21;entryX=0.413;entryY=0.001;entryDx=0;entryDy=0;entryPerimeter=0;" parent="0jPhWe5SMJ6izOc9fW33-1" target="0jPhWe5SMJ6izOc9fW33-2" edge="1">
                    <mxGeometry width="50" height="50" relative="1" as="geometry">
                        <mxPoint x="760" y="420" as="sourcePoint"/>
                        <mxPoint x="530.0799999999999" y="491.236" as="targetPoint"/>
                    </mxGeometry>
                </mxCell>
                <mxCell id="0jPhWe5SMJ6izOc9fW33-33" value="" style="endArrow=classic;startArrow=classic;html=1;fontSize=21;entryX=0.424;entryY=0.001;entryDx=0;entryDy=0;entryPerimeter=0;exitX=0.5;exitY=1;exitDx=0;exitDy=0;" parent="0jPhWe5SMJ6izOc9fW33-1" source="0jPhWe5SMJ6izOc9fW33-7" target="0jPhWe5SMJ6izOc9fW33-2" edge="1">
                    <mxGeometry width="50" height="50" relative="1" as="geometry">
                        <mxPoint x="770" y="430" as="sourcePoint"/>
                        <mxPoint x="532.72" y="491.236" as="targetPoint"/>
                    </mxGeometry>
                </mxCell>
                <mxCell id="0jPhWe5SMJ6izOc9fW33-34" value="monitor" style="rounded=1;whiteSpace=wrap;html=1;" parent="0jPhWe5SMJ6izOc9fW33-1" vertex="1">
                    <mxGeometry x="637" y="240" width="156" height="60" as="geometry"/>
                </mxCell>
                <mxCell id="0jPhWe5SMJ6izOc9fW33-35" value="" style="endArrow=classic;startArrow=classic;html=1;fontSize=21;" parent="0jPhWe5SMJ6izOc9fW33-1" source="0jPhWe5SMJ6izOc9fW33-20" edge="1">
                    <mxGeometry width="50" height="50" relative="1" as="geometry">
                        <mxPoint x="566" y="320" as="sourcePoint"/>
                        <mxPoint x="636.7106781186548" y="270" as="targetPoint"/>
                    </mxGeometry>
                </mxCell>
                <mxCell id="wMBQtBbYKCqUVkrB1MUc-2" value="训练" style="text;html=1;strokeColor=none;fillColor=none;align=center;verticalAlign=middle;whiteSpace=wrap;rounded=0;dashed=1;fontSize=26;" parent="0jPhWe5SMJ6izOc9fW33-1" vertex="1">
                    <mxGeometry x="140" y="310" width="60" height="30" as="geometry"/>
                </mxCell>
                <mxCell id="wMBQtBbYKCqUVkrB1MUc-3" value="推理" style="text;html=1;strokeColor=none;fillColor=none;align=center;verticalAlign=middle;whiteSpace=wrap;rounded=0;dashed=1;fontSize=26;" parent="0jPhWe5SMJ6izOc9fW33-1" vertex="1">
                    <mxGeometry x="841" y="310" width="60" height="30" as="geometry"/>
                </mxCell>
            </root>
        </mxGraphModel>
    </diagram>
</mxfile>